<?xml version="1.0" standalone="no"?>
<!DOCTYPE svg PUBLIC "-//W3C//DTD SVG 20010904//EN"
 "http://www.w3.org/TR/2001/REC-SVG-20010904/DTD/svg10.dtd">
<svg version="1.0" xmlns="http://www.w3.org/2000/svg"
 width="700.000000pt" height="700.000000pt" viewBox="0 0 700.000000 700.000000"
 preserveAspectRatio="xMidYMid meet">
<metadata>
Created by potrace 1.11, written by Peter Selinger 2001-2013
</metadata>
<g transform="translate(0.000000,700.000000) scale(0.100000,-0.100000)"
fill="#000000" stroke="none">
<path d="M3298 6995 c-2 -2 -43 -6 -93 -9 -278 -20 -605 -91 -890 -194 -153
-55 -180 -67 -355 -156 -382 -195 -646 -386 -949 -687 -114 -114 -308 -345
-404 -481 -233 -334 -424 -774 -518 -1193 -25 -109 -47 -232 -55 -300 -3 -27
-8 -61 -10 -75 -25 -148 -24 -686 1 -815 2 -11 7 -40 10 -65 3 -25 7 -56 10
-70 2 -14 7 -41 9 -60 17 -126 100 -435 164 -605 62 -164 186 -428 247 -525
14 -22 25 -44 25 -50 0 -5 5 -10 10 -10 6 0 10 -5 10 -10 0 -29 241 -364 353
-490 111 -125 285 -296 377 -370 30 -25 57 -48 60 -51 19 -25 185 -137 194
-132 6 3 8 2 3 -2 -14 -16 301 -207 493 -298 230 -109 553 -221 750 -261 14
-2 50 -10 80 -16 30 -6 70 -13 89 -16 18 -3 43 -8 55 -10 11 -2 41 -6 66 -9
25 -3 54 -8 65 -10 127 -27 653 -26 835 1 271 40 458 83 669 153 585 195 1120
545 1506 986 33 37 67 75 75 84 52 56 300 399 300 415 0 2 19 35 42 72 209
346 397 887 443 1279 3 28 8 61 10 75 17 95 20 153 20 375 0 214 -10 438 -20
455 -1 3 -6 32 -10 65 -3 32 -8 62 -10 65 -1 3 -6 27 -9 54 -4 27 -14 79 -22
115 -9 36 -18 77 -21 91 -8 43 -72 263 -98 337 -207 592 -549 1095 -1020 1502
-356 308 -766 538 -1215 682 -69 23 -132 42 -140 44 -8 2 -42 10 -75 19 -61
15 -182 42 -232 50 -47 8 -235 35 -293 41 -55 7 -526 15 -532 10z"/>
</g>
</svg>
