<?xml version="1.0" standalone="no"?>
<!DOCTYPE svg PUBLIC "-//W3C//DTD SVG 20010904//EN"
 "http://www.w3.org/TR/2001/REC-SVG-20010904/DTD/svg10.dtd">
<svg version="1.0" xmlns="http://www.w3.org/2000/svg"
 width="700.000000pt" height="700.000000pt" viewBox="0 0 700.000000 700.000000"
 preserveAspectRatio="xMidYMid meet">
<metadata>
Created by potrace 1.11, written by Peter Selinger 2001-2013
</metadata>
<g transform="translate(0.000000,700.000000) scale(0.100000,-0.100000)"
fill="#000000" stroke="none">
<path d="M962 6985 c-239 -43 -450 -153 -622 -325 -130 -131 -224 -280 -280
-448 -64 -191 -60 -22 -60 -2712 0 -2690 -4 -2521 60 -2712 56 -168 150 -317
280 -448 131 -130 280 -224 448 -280 191 -64 22 -60 2712 -60 2690 0 2521 -4
2712 60 168 56 317 150 448 280 130 131 224 280 280 448 64 191 60 22 60 2712
0 2690 4 2521 -60 2712 -56 168 -150 317 -280 448 -131 130 -280 224 -448 280
-191 64 -20 60 -2721 59 -1985 -1 -2470 -3 -2529 -14z m3120 -893 c40 -20 175
-164 784 -835 531 -585 743 -826 760 -862 l24 -50 0 -1447 c0 -1001 -3 -1463
-11 -1500 -6 -29 -31 -96 -56 -148 -85 -178 -260 -316 -451 -355 -63 -13 -275
-15 -1605 -13 -1462 3 -1535 4 -1587 22 -191 64 -328 182 -410 351 -70 147
-65 -20 -65 2245 0 2232 -3 2096 55 2227 87 194 258 333 464 378 49 11 259 13
1056 12 l995 -2 47 -23z"/>
<path d="M2050 5584 c-14 -9 -34 -28 -45 -42 -20 -27 -20 -43 -20 -2042 0
-1999 0 -2015 20 -2042 47 -63 -68 -59 1567 -56 l1487 3 30 29 c17 17 36 46
41 65 6 23 10 493 10 1284 l0 1247 -460 0 c-519 0 -555 4 -695 69 -157 74
-270 184 -345 336 -74 151 -73 144 -77 683 l-4 482 -742 0 c-656 -1 -745 -2
-767 -16z m1610 -2110 c198 -91 206 -364 15 -467 -39 -22 -48 -22 -510 -22
-465 0 -470 0 -511 22 -48 26 -100 82 -122 132 -8 20 -15 63 -15 96 -1 127 82
229 206 255 23 5 233 8 467 7 408 -2 427 -3 470 -23z m785 -1047 c48 -22 89
-59 123 -112 19 -30 26 -57 30 -112 4 -64 1 -79 -22 -127 -15 -31 -44 -69 -66
-86 -79 -63 -42 -61 -970 -58 l-845 3 -41 22 c-48 26 -100 82 -122 132 -8 20
-15 63 -15 96 -1 127 82 230 206 255 23 4 411 7 862 7 767 -2 823 -3 860 -20z"/>
<path d="M4080 5029 l0 -315 25 -51 c16 -32 41 -61 67 -79 l41 -29 295 -3
c282 -3 295 -2 281 15 -17 22 -628 694 -675 743 l-34 35 0 -316z"/>
</g>
</svg>
