<?xml version="1.0" standalone="no"?>
<!DOCTYPE svg PUBLIC "-//W3C//DTD SVG 20010904//EN"
 "http://www.w3.org/TR/2001/REC-SVG-20010904/DTD/svg10.dtd">
<svg version="1.0" xmlns="http://www.w3.org/2000/svg"
 width="512.000000pt" height="512.000000pt" viewBox="0 0 512.000000 512.000000"
 preserveAspectRatio="xMidYMid meet">
<metadata>
Created by potrace 1.11, written by Peter Selinger 2001-2013
</metadata>
<g transform="translate(0.000000,512.000000) scale(0.100000,-0.100000)"
fill="#000000" stroke="none">
<path d="M2330 5112 c-134 -9 -388 -61 -545 -111 -294 -93 -613 -267 -849
-463 -462 -385 -768 -892 -886 -1471 -62 -304 -65 -676 -6 -985 126 -666 514
-1255 1081 -1641 317 -216 669 -353 1075 -417 138 -22 505 -27 653 -9 1136
137 2037 992 2232 2116 39 225 42 580 6 814 -116 755 -560 1417 -1217 1813
-308 185 -655 303 -1018 346 -100 12 -411 17 -526 8z"/>
</g>
</svg>
