<svg width="24" height="24" viewBox="0 0 24 24" fill="none" xmlns="http://www.w3.org/2000/svg">
<rect width="24" height="24" rx="4" fill="#1ABEFF"/>
<path d="M14.9 15.6H9.5C9.2613 15.6 9.03239 15.6948 8.8636 15.8636C8.69482 16.0324 8.6 16.2613 8.6 16.5C8.6 16.7387 8.69482 16.9676 8.8636 17.1364C9.03239 17.3052 9.2613 17.4 9.5 17.4H14.9C15.1387 17.4 15.3676 17.3052 15.5364 17.1364C15.7052 16.9676 15.8 16.7387 15.8 16.5C15.8 16.2613 15.7052 16.0324 15.5364 15.8636C15.3676 15.6948 15.1387 15.6 14.9 15.6Z" fill="white"/>
<path d="M9.5 13.8H12.2C12.4387 13.8 12.6676 13.7052 12.8364 13.5364C13.0052 13.3676 13.1 13.1387 13.1 12.9C13.1 12.6613 13.0052 12.4324 12.8364 12.2636C12.6676 12.0948 12.4387 12 12.2 12H9.5C9.2613 12 9.03239 12.0948 8.8636 12.2636C8.69482 12.4324 8.6 12.6613 8.6 12.9C8.6 13.1387 8.69482 13.3676 8.8636 13.5364C9.03239 13.7052 9.2613 13.8 9.5 13.8V13.8Z" fill="white"/>
<path d="M19.166 8.69706L14.27 3.29716C14.1859 3.20393 14.0831 3.12934 13.9684 3.07819C13.8537 3.02704 13.7296 3.00046 13.604 3.00016H7.304C7.00497 2.9966 6.70817 3.05197 6.43055 3.16311C6.15293 3.27425 5.89991 3.439 5.68596 3.64793C5.47201 3.85686 5.30131 4.10589 5.18362 4.3808C5.06592 4.6557 5.00352 4.9511 5 5.25012V18.7499C5.00352 19.0489 5.06592 19.3443 5.18362 19.6192C5.30131 19.8941 5.47201 20.1431 5.68596 20.3521C5.89991 20.561 6.15293 20.7257 6.43055 20.8369C6.70817 20.948 7.00497 21.0034 7.304 20.9998H17.096C17.395 21.0034 17.6918 20.948 17.9694 20.8369C18.2471 20.7257 18.5001 20.561 18.714 20.3521C18.928 20.1431 19.0987 19.8941 19.2164 19.6192C19.3341 19.3443 19.3965 19.0489 19.4 18.7499V9.30005C19.3994 9.077 19.316 8.86211 19.166 8.69706V8.69706ZM14 5.70011L16.466 8.40006H14.666C14.5718 8.39437 14.4796 8.36997 14.3949 8.32827C14.3102 8.28658 14.2346 8.22843 14.1726 8.15722C14.1106 8.086 14.0634 8.00316 14.0338 7.91351C14.0041 7.82386 13.9927 7.72921 14 7.63508V5.70011ZM17.096 19.1999H7.304C7.24134 19.2035 7.17857 19.1948 7.1193 19.1741C7.06002 19.1534 7.00541 19.1213 6.95859 19.0795C6.91177 19.0377 6.87366 18.9871 6.84644 18.9305C6.81923 18.8739 6.80345 18.8126 6.8 18.7499V5.25012C6.80345 5.18745 6.81923 5.12607 6.84644 5.06951C6.87366 5.01295 6.91177 4.96231 6.95859 4.92051C7.00541 4.8787 7.06002 4.84655 7.1193 4.8259C7.17857 4.80524 7.24134 4.79648 7.304 4.80013H12.2V7.63508C12.1855 8.29803 12.4338 8.93981 12.8907 9.42035C13.3477 9.90089 13.9761 10.1812 14.639 10.2H17.6V18.7499C17.5966 18.8126 17.5808 18.8739 17.5536 18.9305C17.5263 18.9871 17.4882 19.0377 17.4414 19.0795C17.3946 19.1213 17.34 19.1534 17.2807 19.1741C17.2214 19.1948 17.1587 19.2035 17.096 19.1999Z" fill="white"/>
</svg>
