<svg width="24" height="24" viewBox="0 0 24 24" fill="none" xmlns="http://www.w3.org/2000/svg">
<path d="M15.5 16.4H8.9C8.60826 16.4 8.32848 16.5159 8.12219 16.7222C7.9159 16.9285 7.8 17.2083 7.8 17.5C7.8 17.7917 7.9159 18.0715 8.12219 18.2778C8.32848 18.4841 8.60826 18.6 8.9 18.6H15.5C15.7917 18.6 16.0715 18.4841 16.2778 18.2778C16.4841 18.0715 16.6 17.7917 16.6 17.5C16.6 17.2083 16.4841 16.9285 16.2778 16.7222C16.0715 16.5159 15.7917 16.4 15.5 16.4Z" fill="#1ABEFF"/>
<path d="M8.9 14.2H12.2C12.4917 14.2 12.7715 14.0841 12.9778 13.8778C13.1841 13.6715 13.3 13.3917 13.3 13.1C13.3 12.8083 13.1841 12.5285 12.9778 12.3222C12.7715 12.1159 12.4917 12 12.2 12H8.9C8.60827 12 8.32848 12.1159 8.12219 12.3222C7.9159 12.5285 7.8 12.8083 7.8 13.1C7.8 13.3917 7.9159 13.6715 8.12219 13.8778C8.32848 14.0841 8.60827 14.2 8.9 14.2V14.2Z" fill="#1ABEFF"/>
<path d="M20.714 7.96307L14.73 1.36319C14.6272 1.24924 14.5016 1.15808 14.3614 1.09556C14.2212 1.03304 14.0695 1.00056 13.916 1.0002H6.216C5.85053 0.995838 5.48777 1.06351 5.14845 1.19936C4.80913 1.3352 4.4999 1.53655 4.2384 1.79191C3.97691 2.04727 3.76828 2.35164 3.62442 2.68764C3.48057 3.02364 3.40431 3.38468 3.4 3.75015V20.2499C3.40431 20.6153 3.48057 20.9764 3.62442 21.3124C3.76828 21.6484 3.97691 21.9527 4.2384 22.2081C4.4999 22.4634 4.80913 22.6648 5.14845 22.8006C5.48777 22.9365 5.85053 23.0042 6.216 22.9998H18.184C18.5495 23.0042 18.9122 22.9365 19.2516 22.8006C19.5909 22.6648 19.9001 22.4634 20.1616 22.2081C20.4231 21.9527 20.6317 21.6484 20.7756 21.3124C20.9194 20.9764 20.9957 20.6153 21 20.2499V8.70006C20.9993 8.42744 20.8974 8.16481 20.714 7.96307V7.96307ZM14.4 4.30014L17.414 7.60008H15.214C15.0988 7.59312 14.9862 7.5633 14.8826 7.51233C14.7791 7.46137 14.6867 7.3903 14.611 7.30326C14.5352 7.21623 14.4775 7.11497 14.4413 7.0054C14.4051 6.89583 14.391 6.78015 14.4 6.6651V4.30014ZM18.184 20.7998H6.216C6.13941 20.8043 6.0627 20.7936 5.99025 20.7683C5.91781 20.7431 5.85106 20.7038 5.79383 20.6527C5.73661 20.6016 5.69003 20.5397 5.65677 20.4706C5.6235 20.4015 5.60421 20.3265 5.6 20.2499V3.75015C5.60421 3.67355 5.6235 3.59853 5.65677 3.5294C5.69003 3.46027 5.73661 3.39838 5.79383 3.34729C5.85106 3.29619 5.91781 3.2569 5.99025 3.23165C6.0627 3.2064 6.13941 3.1957 6.216 3.20016H12.2V6.6651C12.1822 7.47537 12.4857 8.25976 13.0442 8.84709C13.6027 9.43442 14.3708 9.77699 15.181 9.80004H18.8V20.2499C18.7958 20.3265 18.7765 20.4015 18.7432 20.4706C18.71 20.5397 18.6634 20.6016 18.6062 20.6527C18.5489 20.7038 18.4822 20.7431 18.4097 20.7683C18.3373 20.7936 18.2606 20.8043 18.184 20.7998Z" fill="#1ABEFF"/>
</svg>
